<svg width="48" height="48" viewBox="0 0 48 48" fill="none" xmlns="http://www.w3.org/2000/svg">
<path d="M30 30.783C34.4183 30.783 38 27.2012 38 22.783C38 18.3647 34.4183 14.783 30 14.783C25.5817 14.783 22 18.3647 22 22.783C22 27.2012 25.5817 30.783 30 30.783Z" fill="url(#paint0_linear_2_530)"/>
<path d="M28.96 8.24294L29.48 11.1969C29.828 13.1669 26.872 13.6869 26.526 11.7169L26.006 8.76294C25.658 6.79294 28.614 6.27294 28.96 8.24294V8.24294ZM39.546 11.7649L37.826 14.2229C36.678 15.8609 34.222 14.1409 35.368 12.5029L37.088 10.0449C38.236 8.40694 40.692 10.1269 39.546 11.7649ZM18.984 13.2369L21.442 14.9569C23.08 16.1049 21.36 18.5609 19.722 17.4149L17.264 15.6949C15.626 14.5469 17.346 12.0909 18.984 13.2369V13.2369ZM40.282 28.1489L42.74 29.8689C44.378 31.0169 42.658 33.4729 41.02 32.3269L38.562 30.6069C36.924 29.4589 38.644 27.0029 40.282 28.1489ZM44.542 21.7409L41.588 22.2609C39.618 22.6089 39.098 19.6529 41.068 19.3069L44.022 18.7869C45.992 18.4389 46.512 21.3949 44.542 21.7409Z" fill="#FFB300"/>
<path d="M10 40.783C5.582 40.783 2 37.201 2 32.783C2 28.365 5.582 24.783 10 24.783C10.834 24.783 11.636 24.911 12.392 25.147C13.518 21.463 16.946 18.783 21 18.783C25.97 18.783 30 22.813 30 27.783C30 28.253 29.964 28.713 29.894 29.163C30.55 28.917 31.258 28.783 32 28.783C35.314 28.783 38 31.469 38 34.783C38 38.097 35.314 40.783 32 40.783H10Z" fill="url(#paint1_linear_2_530)"/>
<path d="M12 27.783C12 32.753 16.03 36.783 21 36.783C25.502 36.783 29.23 33.479 29.894 29.163C30.55 28.917 31.258 28.783 32 28.783C35.314 28.783 38 31.469 38 34.783C38 38.097 35.314 40.783 32 40.783H10C5.582 40.783 2 37.201 2 32.783C2 28.365 5.582 24.783 10 24.783C10.834 24.783 11.636 24.911 12.392 25.147C12.136 25.981 12 26.865 12 27.783Z" fill="url(#paint2_radial_2_530)"/>
<defs>
<linearGradient id="paint0_linear_2_530" x1="38" y1="14.783" x2="26.7832" y2="25.8553" gradientUnits="userSpaceOnUse">
<stop stop-color="#FFB301"/>
<stop offset="1" stop-color="#FFC533"/>
</linearGradient>
<linearGradient id="paint1_linear_2_530" x1="20" y1="18.783" x2="20" y2="40.783" gradientUnits="userSpaceOnUse">
<stop stop-color="#9FC7FF"/>
<stop offset="1" stop-color="#9BC1F5"/>
</linearGradient>
<radialGradient id="paint2_radial_2_530" cx="0" cy="0" r="1" gradientUnits="userSpaceOnUse" gradientTransform="translate(13.0679 -15.9136) rotate(-90) scale(20.9574 6.69705)">
<stop stop-color="#486DA8" stop-opacity="0.4"/>
<stop offset="1" stop-color="#486DA8" stop-opacity="0"/>
</radialGradient>
</defs>
</svg>
